<?xml version="1.0" encoding="utf-8"?>
<svg version="1.1" id="Layer_1" xmlns="http://www.w3.org/2000/svg" xmlns:xlink="http://www.w3.org/1999/xlink" x="0px" y="0px"
	 viewBox="0 0 220 27" enable-background="new 0 0 220 27" xml:space="preserve">
<g>
	<path id="XMLID_18_" fill="#00AE5F" d="M120.4,16.9c-0.3,0-0.6-0.1-0.8-0.3c-0.4-0.4-0.4-1.1,0-1.6l1.7-1.7l-1.7-1.7
		c-0.4-0.4-0.4-1.1,0-1.6c0.4-0.4,1.1-0.4,1.6,0l2.4,2.4c0.2,0.2,0.3,0.5,0.3,0.8c0,0.3-0.1,0.6-0.3,0.8l-2.4,2.4
		C121,16.8,120.7,16.9,120.4,16.9"/>
	<path id="XMLID_17_" fill="#333334" d="M187.7,5.3c0-0.3,0.2-0.5,0.5-0.5h2c0.3,0,0.5,0.2,0.5,0.5v16.4c0,0.3-0.2,0.5-0.5,0.5h-2
		c-0.3,0-0.5-0.2-0.5-0.5V5.3z"/>
	<path id="XMLID_16_" fill="#333334" d="M200.7,22.6c-3.4,0-4.9-0.6-6.1-1.9c-1.4-1.4-2-3.4-2-7.3c0-7.5,3-9,8.2-9
		c1.4,0,3,0.2,4.3,0.5l0.1,0c0.4,0.1,0.3,0.5,0.3,0.5l-0.5,1.8c0,0-0.1,0.3-0.7,0.3c-1.4-0.2-1.7-0.2-3-0.2
		c-3.7-0.1-5.5,0.3-5.5,6.2c0,5.5,2.1,6.3,5.6,6.2c1.5-0.1,2.1-0.1,2.8-0.2l0.3,0c0.4,0,0.5,0.3,0.5,0.3l0.4,1.9
		c0,0,0.1,0.3-0.2,0.4l-0.1,0C203.7,22.4,202.2,22.6,200.7,22.6"/>
	<path id="XMLID_15_" fill="#333334" d="M133.5,4.5c-0.2,0-0.3,0-0.4,0l-0.1,0c-2.6,0.1-4,0.5-5.2,1.6c-1,1-1.4,2.1-1.4,3.5
		c0,4.3,3.2,4.7,5.2,4.8c0.1,0,0.3,0,0.4,0c1,0.1,2,0.2,2.6,0.5c1.1,0.5,1.7,1.3,1.7,2.3c0,0.9-0.7,1.8-1.5,2.1
		c-0.7,0.3-1.2,0.4-2.3,0.4c-0.2,0-0.4,0-0.6,0c-1.4,0-3.3-0.4-4.5-0.7l0,0l-0.2,0c-0.4,0-0.8,0.3-0.8,0.7l-0.3,1.7l0,0.2l0.1,0.1
		l0,0c0.2,0,0.3,0.1,0.4,0.1c1.8,0.4,3.9,0.7,5.4,0.7c1.5,0,2.7-0.1,3.7-0.4c1.3-0.3,2.1-1.1,2.6-1.6c0.8-0.9,1.2-2,1.2-3.3
		c0-0.9-0.4-2.1-0.9-2.9c-0.5-0.8-1.2-1.4-2.1-1.8l0,0c-0.2-0.1-0.5-0.2-0.8-0.3c-0.6-0.1-1.2-0.3-2-0.3l-0.4,0
		c-0.7-0.1-1.6-0.1-2.1-0.3c-1.7-0.4-1.8-1.3-1.7-2.3c0.1-0.8,0.6-1.7,1.8-2c0.4-0.1,0.9-0.1,1.5-0.1c0.3,0,0.7,0,1,0
		c0.7,0,1.4,0.1,2,0.1c0.7,0.1,1.3,0.1,1.8,0.2l0.3,0c0.2,0,0.3-0.1,0.4-0.2c0.2-0.2,0.2-0.4,0.2-0.4l0.4-1.5c0,0,0-0.1,0-0.2
		c-0.1-0.1-0.2-0.2-0.3-0.2c-1.7-0.3-3.1-0.5-4.7-0.5L133.5,4.5z"/>
	<path id="XMLID_14_" fill="#333334" d="M84.8,5.3c0-0.3-0.2-0.5-0.5-0.5H71.2h0c-0.3,0-0.5,0.2-0.5,0.5v0v1.7
		c0,0.3,0.2,0.5,0.5,0.5l0,0l5,0v14.6h2.3h0.3h0c0.3,0,0.5-0.2,0.5-0.5l0,0l0-0.2V7.6H84v0h0.3l0,0c0.3,0,0.5-0.2,0.5-0.5V5.3z"/>
	<path fill="#333334" d="M49.6,13.7h-5.1V7.6h5.2c1.7,0,2.4,0.9,2.4,3.1C52.1,13.1,51.1,13.7,49.6,13.7 M50.4,4.8h-8.5
		c-0.3,0-0.5,0.2-0.5,0.5h0v16.9H44h0h0h0v0c0.3,0,0.5-0.2,0.5-0.5v0v-5.2h6c3.5,0,4.7-3,4.7-5.7C55.2,6.7,53.6,4.8,50.4,4.8"/>
	<path id="XMLID_11_" fill="#333334" d="M69.6,20.1L69.6,20.1L69.6,20.1L69.6,20.1c0-0.3-0.2-0.5-0.5-0.6l0,0h-9l-0.4,0v-4.8v-0.4
		h7.5c0.2,0,0.5-0.2,0.5-0.5v-0.6v-1.2c0-0.3-0.2-0.5-0.5-0.5H60h-0.4v-4h9.1l0.2,0h0c0.3,0,0.5-0.2,0.5-0.5v0V6.7V5.3v0v0
		c0-0.3-0.2-0.5-0.5-0.5l0,0l-11.9,0c-0.3,0-0.5,0.2-0.5,0.5v0l0,16.9H69h0c0.3,0,0.5-0.2,0.5-0.5l0,0V20.1L69.6,20.1z"/>
	<path id="XMLID_10_" fill="#333334" d="M99.1,20.1L99.1,20.1L99.1,20.1L99.1,20.1c0-0.3-0.2-0.5-0.5-0.6l0,0h-9l-0.4,0v-4.8v-0.4
		h7.5c0.3,0,0.5-0.2,0.5-0.5v-0.6v-1.2c0-0.3-0.2-0.5-0.5-0.5h-7.1h-0.4v-4h9.1l0.2,0h0c0.3,0,0.5-0.2,0.5-0.5l0,0V6.7V5.3l0,0v0
		c0-0.3-0.2-0.5-0.5-0.5l0,0l-11.9,0c-0.3,0-0.5,0.2-0.5,0.5v0l0,16.9h12.4h0c0.3,0,0.5-0.2,0.5-0.5v0V20.1L99.1,20.1z"/>
	<path id="XMLID_9_" fill="#333334" d="M153.5,20.1L153.5,20.1L153.5,20.1L153.5,20.1c0-0.3-0.2-0.5-0.5-0.6l0,0h-9l-0.4,0v-4.8
		l0-0.4h7.5c0.3,0,0.5-0.2,0.5-0.5v-0.6v-1.2c0-0.3-0.2-0.5-0.5-0.5H144h-0.4v-4h9.1l0.2,0h0c0.3,0,0.5-0.2,0.5-0.5l0,0V6.7V5.3l0,0
		v0c0-0.3-0.2-0.5-0.5-0.5l0,0l-11.9,0h0c-0.3,0-0.5,0.2-0.5,0.5v0l0,16.9H153h0c0.3,0,0.5-0.2,0.5-0.5v0V20.1L153.5,20.1z"/>
	<path id="XMLID_8_" fill="#333334" d="M220,20.1L220,20.1L220,20.1L220,20.1c0-0.3-0.2-0.5-0.5-0.6l0,0h-9l-0.4,0v-4.8v-0.4h7.5
		c0.3,0,0.5-0.2,0.5-0.5v-0.6v-1.2c0-0.3-0.2-0.5-0.5-0.5h-7.1h-0.4v-4h9.1l0.2,0h0c0.3,0,0.5-0.2,0.5-0.5l0,0V6.7V5.3l0,0v0
		c0-0.3-0.2-0.5-0.5-0.5l0,0l-11.9,0c-0.3,0-0.5,0.2-0.5,0.5v0l0,16.9h12.4h0c0.3,0,0.5-0.2,0.5-0.5v0V20.1L220,20.1z"/>
	<path fill="#333334" d="M103.6,13.4V7.6h4.5c2.3,0,3.5,1,3.5,2.8c0,1.8-1.2,2.9-3.4,2.9H103.6z M110.7,15.6
		c2.4-0.7,3.9-2.4,3.9-5.3c0-3.4-2.2-5.6-6.3-5.6l-7.2,0h0c-0.3,0-0.6,0.2-0.6,0.6l0,0v16.9h2.5v0c0.3,0,0.5-0.2,0.5-0.5v0v-5.5h3.4
		l5.9,5.8l0,0c0.1,0.2,0.3,0.2,0.6,0.2h0h3.6L110.7,15.6z"/>
	<path fill="#333334" d="M158.1,13.4V7.6h4.5c2.3,0,3.5,1,3.5,2.8c0,1.8-1.2,2.9-3.4,2.9H158.1z M165.1,15.6
		c2.4-0.7,3.9-2.4,3.9-5.3c0-3.4-2.2-5.6-6.3-5.6l-7.2,0h0c-0.3,0-0.6,0.2-0.6,0.6v0v16.9h2.5v0c0.3,0,0.5-0.2,0.5-0.5v0v-5.5h3.4
		l5.9,5.8l0,0c0.2,0.2,0.4,0.2,0.6,0.2h0h3.6L165.1,15.6z"/>
	<path id="XMLID_3_" fill="#333334" d="M36.1,11.8c0.9,0.9,0.9,2.4,0,3.4L25.2,26c-0.9,0.9-2.4,0.9-3.4,0L11.1,15.2
		c-0.9-0.9-0.9-2.4,0-3.4L21.9,1c0.9-0.9,2.4-0.9,3.4,0L36.1,11.8z"/>
	<path id="XMLID_2_" fill="#00AE5F" d="M25.7,11.8c0.9,0.9,0.9,2.4,0,3.4L14.9,26c-0.9,0.9-2.4,0.9-3.4,0L0.7,15.2
		c-0.9-0.9-0.9-2.4,0-3.4L11.5,1c0.9-0.9,2.4-0.9,3.4,0L25.7,11.8z"/>
	<path id="XMLID_1_" fill="#333334" d="M186.5,4.8h-2.8c-0.3,0-0.6,0.2-0.8,0.5l-5,12.9l-5.1-12.9h0c-0.1-0.3-0.4-0.5-0.8-0.5h0
		h-2.8l0.5,1.1l6.7,16.1c0.1,0.2,0.3,0.4,0.5,0.4h0h1.9c0.4,0,0.5-0.3,0.5-0.3L186.5,4.8z"/>
</g>
</svg>
